<svg width="529" height="500" viewBox="0 0 529 500" fill="none" xmlns="http://www.w3.org/2000/svg">
<g clip-path="url(#clip0_12_101)">
<path d="M72.1908 87.367C65.9741 76.4129 60.3059 66.7055 54.9202 56.8484C47.0412 42.4036 48.2713 25.8478 57.8457 14.0791C66.1569 3.95614 78.0087 1.08047 89.8271 1.0306C176.762 0.68153 263.797 -1.41289 350.632 1.59575C440.093 4.68751 506.366 65.8743 523.737 147.872C530.735 180.934 527.477 212.567 518.501 244.365C517.404 248.245 517.404 252.353 518.501 256.233C534.142 305.585 530.702 353.773 507.081 399.468C479.621 452.66 435.339 484.757 376.413 495.695C362.015 498.311 347.413 499.646 332.779 499.684C253.856 500.05 174.928 500.017 95.994 499.584C86.0206 499.584 75.2161 497.739 66.4229 493.434C49.2188 485.007 44.4315 463.049 54.4216 444.648C59.8072 434.674 65.5751 424.967 72.1576 413.414C60.7713 413.414 50.6649 414.146 40.7081 413.198C32.3969 412.384 23.1882 411.37 16.1403 407.364C-1.18018 397.557 -4.75399 375.914 6.41622 356.383C25.0997 323.737 43.75 291.074 62.9322 258.694C66.6556 252.377 66.6223 247.773 62.9322 241.473C43.8165 209.092 25.0055 176.524 6.49934 143.767C-1.5625 129.521 -2.41024 114.977 8.07846 101.147C16.0073 90.6915 27.5598 88.1151 39.6609 87.4502C49.8504 86.9183 60.3391 87.367 72.1908 87.367ZM34.4747 122.274C36.6024 126.247 37.9322 128.923 39.4614 131.483C60.4388 167.886 81.2832 204.355 102.626 240.559C106.832 247.69 106.632 253.241 102.46 260.323C80.7347 297.241 59.4914 334.441 38.0984 371.543C36.9847 373.487 36.137 375.582 34.5911 378.84H132.463L83.4774 464.378C87.766 464.561 90.5253 464.794 93.2846 464.794C174.18 464.794 255.075 464.761 335.971 464.694C347.606 464.694 359.375 464.395 370.628 462.051C465.193 442.271 515.841 350.416 483.162 259.441C481.291 253.536 481.326 247.191 483.261 241.307C490.243 220.928 494.282 200.233 493.019 178.707C488.248 97.3737 425.033 36.5526 343.866 36.0207C260.223 35.4887 176.579 35.7713 92.869 35.7381C90.2759 35.7381 87.6829 36.137 83.5439 36.4861C100.166 65.5752 116.157 93.3677 132.713 122.274H34.4747Z" fill="black"/>
<path d="M34.4747 122.224H132.547C115.924 93.3178 100.05 65.5253 83.3777 36.4362C87.5166 36.0871 90.1097 35.6881 92.7028 35.6881C176.346 35.6881 259.99 35.4388 343.7 35.9707C424.867 36.5027 488.082 97.3238 492.852 178.657C494.116 200.183 490.076 220.878 483.095 241.257C481.16 247.141 481.125 253.486 482.995 259.392C515.675 350.366 465.027 442.237 370.462 462.001C359.192 464.345 347.39 464.545 335.755 464.644C254.859 464.866 173.964 464.899 93.0685 464.744C90.3092 464.744 87.5499 464.511 83.2613 464.328L132.247 378.79H34.4747C36.0206 375.465 36.8683 373.437 37.982 371.493C59.375 334.392 80.6184 297.191 102.344 260.273C106.516 253.191 106.715 247.64 102.51 240.509C81.2334 204.305 60.3889 167.836 39.3451 131.433C37.9322 128.856 36.5525 126.197 34.4747 122.224ZM155.984 420.911C158.61 421.094 159.924 421.277 161.237 421.277C222.44 421.277 283.644 421.376 344.864 421.177C351.494 421.058 358.09 420.193 364.528 418.6C437.367 401.662 470.911 321.842 432.048 257.547C428.723 252.111 428.341 248.437 431.898 242.836C445.911 220.861 450.881 197.025 447.357 170.811C440.575 120.263 397.357 79.7207 346.31 79.0891C285.389 78.341 224.451 78.8397 163.464 78.8065C161.403 78.8065 159.325 79.0558 156.366 79.2553C163.015 90.974 169.232 101.629 175 112.5C178.64 119.382 183.561 122.224 191.622 122.174C242.038 121.875 292.437 121.941 342.886 122.058C370.13 122.058 394.415 140.575 402.493 166.639C409.142 187.882 403.308 206.666 392.67 225.116C376.43 253.275 375.765 245.977 392.886 275.183C399.684 286.818 405.02 298.82 405.419 312.433C406.449 348.853 378.208 377.776 340.741 378.108C294.764 378.441 248.787 378.108 202.776 378.108C201.234 377.999 199.701 377.782 198.188 377.46C202.244 370.03 206.599 363.531 209.458 356.449C215.143 342.37 224.884 335.971 240.16 336.187C271.443 336.619 302.743 336.336 334.043 336.32C360.057 336.32 369.398 320.894 356.882 298.421C349.485 285.123 341.922 271.925 333.993 259.009C330.17 252.826 329.887 247.773 333.81 241.456C342.121 228.075 349.834 214.312 357.596 200.598C369.149 180.153 359.674 164.029 336.187 163.929C263.049 163.929 189.91 163.929 116.772 163.929C113.896 163.929 111.037 164.295 106.799 164.594C109.109 168.85 110.588 171.725 112.201 174.568C124.9 196.609 137.4 218.767 150.432 240.575C154.488 247.324 154.671 252.743 150.565 259.541C137.849 280.618 125.632 302.011 113.447 323.338C111.22 327.227 109.491 331.383 107.081 336.353C120.878 336.353 133.062 336.021 145.213 336.486C152.477 336.752 157.031 334.225 160.605 327.859C173.493 304.987 186.613 282.242 199.967 259.624C203.807 253.158 203.906 247.357 200.316 240.991C191.75 225.831 183.278 210.622 174.9 195.362C173.902 193.201 173.036 190.98 172.307 188.713C184.94 188.713 196.559 188.963 208.145 188.614C211.171 188.327 214.211 188.969 216.863 190.454C219.515 191.939 221.652 194.196 222.989 196.925C231.549 211.769 240.243 226.546 249.285 241.09C253.125 247.257 253.092 252.593 249.402 258.777C239.678 275.166 230.352 291.805 220.811 308.311C199.568 345.495 178.125 382.58 155.984 420.911Z" fill="white"/>
<path d="M155.984 420.911C178.125 382.58 199.568 345.495 220.961 308.411C230.502 291.905 239.827 275.266 249.551 258.876C253.241 252.693 253.275 247.357 249.435 241.19C240.392 226.646 231.699 211.868 223.138 197.025C221.801 194.296 219.664 192.038 217.013 190.554C214.361 189.069 211.32 188.427 208.295 188.713C196.659 189.063 185.023 188.813 172.457 188.813C173.186 191.08 174.052 193.3 175.05 195.462C183.461 210.699 191.933 225.909 200.465 241.09C204.056 247.457 203.956 253.258 200.116 259.724C186.73 282.33 173.609 305.075 160.755 327.959C157.181 334.325 152.626 336.852 145.362 336.586C133.211 336.12 121.027 336.453 107.231 336.453C109.641 331.466 111.37 327.327 113.597 323.437C125.848 302.111 137.999 280.718 150.715 259.641C154.82 252.842 154.638 247.424 150.582 240.675C137.517 218.866 125.017 196.709 112.35 174.668C110.688 171.875 109.259 168.999 106.948 164.694C111.237 164.395 114.096 164.029 116.922 164.029C190.06 164.029 263.198 164.029 336.336 164.029C359.824 164.029 369.299 180.253 357.746 200.698C349.983 214.412 342.287 228.175 333.959 241.556C330.037 247.872 330.319 252.926 334.142 259.109C342.121 272.025 349.634 285.239 357.031 298.521C369.548 320.994 360.206 336.386 334.192 336.42C302.892 336.42 271.592 336.719 240.309 336.287C225.033 336.07 215.293 342.47 209.608 356.549C206.749 363.63 202.394 370.13 198.338 377.56C199.85 377.882 201.383 378.099 202.925 378.208C248.903 378.208 294.88 378.491 340.891 378.208C378.291 377.926 406.533 349.003 405.452 312.65C405.053 299.036 399.717 287.001 392.919 275.399C375.798 246.193 376.463 253.491 392.703 225.332C403.341 206.882 409.159 188.098 402.527 166.855C394.382 140.791 370.163 122.34 342.919 122.274C292.503 122.158 242.104 122.091 191.656 122.39C183.66 122.39 178.74 119.598 175.033 112.716C169.265 101.779 162.982 91.107 156.4 79.4714C159.358 79.2719 161.386 79.0226 163.497 79.0226C224.435 79.0226 285.372 78.5572 346.343 79.3052C397.39 79.9368 440.608 120.479 447.39 171.027C450.914 197.241 445.944 221.077 431.931 243.052C428.374 248.654 428.79 252.327 432.081 257.763C470.911 322.058 437.4 401.878 364.561 418.816C358.124 420.409 351.527 421.274 344.897 421.393C283.677 421.592 222.473 421.509 161.27 421.493C159.924 421.326 158.61 421.094 155.984 420.911Z" fill="black"/>
</g>
<defs>
<clipPath id="clip0_12_101">
<rect width="528.025" height="500" fill="white"/>
</clipPath>
</defs>
</svg>
